HIERARCHY
ROOT Hips
{
	OFFSET 0.00 0.00 0.00
	CHANNELS 6 Xposition Yposition Zposition Xrotation Yrotation Zrotation
	JOINT Spine
	{
		OFFSET 0.00000 7.50895 0.00000
		CHANNELS 3 Xrotation Yrotation Zrotation
		JOINT Head
		{
			OFFSET 0.00000 13.86115 0.00000
			CHANNELS 3 Xrotation Yrotation Zrotation
			End Site
			{
				OFFSET 0.00000 4.52755 0.00000
			}
		}
		JOINT LeftShoulder
		{
			OFFSET 0.00000 8.20478 0.00000
			CHANNELS 3 Xrotation Yrotation Zrotation
			JOINT LeftArm
			{
				OFFSET 6.63596 0.00000 0.00000
				CHANNELS 3 Xrotation Yrotation Zrotation
				JOINT LeftForeArm
				{
					OFFSET 10.27422 0.00000 0.00000
					CHANNELS 3 Yrotation Zrotation Xrotation
					JOINT LeftHand
					{
						OFFSET 8.52215 0.00000 0.00000
						CHANNELS 3 Xrotation Yrotation Zrotation
						JOINT LeftHandThumb1
						{
							OFFSET 0.00000 0.00000 0.00000
							CHANNELS 3 Xrotation Zrotation Yrotation
							End Site
							{
								OFFSET 0.00000 0.00000 3.93700
							}
						}
						End Site
						{
							OFFSET 3.93700 0.00000 0.00000
						}
					}
				}
			}
		}
		JOINT RightShoulder
		{
			OFFSET 0.00000 8.20478 0.00000
			CHANNELS 3 Xrotation Yrotation Zrotation
			JOINT RightArm
			{
				OFFSET -6.63596 0.00000 0.00000
				CHANNELS 3 Xrotation Yrotation Zrotation
				JOINT RightForeArm
				{
					OFFSET -10.27422 0.00000 0.00000
					CHANNELS 3 Yrotation Zrotation Xrotation
					JOINT RightHand
					{
						OFFSET -8.52215 0.00000 0.00000
						CHANNELS 3 Xrotation Yrotation Zrotation
						JOINT RightHandThumb1
						{
							OFFSET 0.00000 0.00000 0.00000
							CHANNELS 3 Xrotation Zrotation Yrotation
							End Site
							{
								OFFSET 0.00000 0.00000 3.93700
							}
						}
						End Site
						{
							OFFSET -3.93700 0.00000 0.00000
						}
					}
				}
			}
		}
	}
	JOINT LeftUpLeg
	{
		OFFSET 3.00056 0.00000 0.00000
		CHANNELS 3 Xrotation Yrotation Zrotation
		JOINT LeftLeg
		{
			OFFSET 0.00000 -16.49085 0.00000
			CHANNELS 3 Xrotation Yrotation Zrotation
			JOINT LeftFoot
			{
				OFFSET 0.00000 -14.55658 0.00000
				CHANNELS 3 Xrotation Yrotation Zrotation
				JOINT LeftToeBase
				{
					OFFSET 0.00000 -1.25038 4.66650
					CHANNELS 3 Xrotation Yrotation Zrotation
					End Site
					{
						OFFSET 0.00000 0.00000 2.95275
					}
				}
			}
		}
	}
	JOINT RightUpLeg
	{
		OFFSET -3.00056 0.00000 0.00000
		CHANNELS 3 Xrotation Yrotation Zrotation
		JOINT RightLeg
		{
			OFFSET 0.00000 -16.49085 0.00000
			CHANNELS 3 Xrotation Yrotation Zrotation
			JOINT RightFoot
			{
				OFFSET 0.00000 -14.55658 0.00000
				CHANNELS 3 Xrotation Yrotation Zrotation
				JOINT RightToeBase
				{
					OFFSET 0.00000 -1.25038 4.66650
					CHANNELS 3 Xrotation Yrotation Zrotation
					End Site
					{
						OFFSET 0.00000 0.00000 2.95275
					}
				}
			}
		}
	}
}
MOTION
Frames: 9
Frame Time: 0.008333
 0.3259 31.8072 -12.3738 113.1061 2.8317 -11.3578 42.9095 10.8785 11.6380 11.6346 -19.0232 1.2635 -17.3912 -22.9586 42.7798 -47.2490 -10.1505 -19.6383 -76.3037 -0.0000 64.4707 -30.4390 28.2663 51.1339 33.1476 -0.0000 26.2537 -56.3641 47.3813 -22.2236 -16.3816 -13.1305 39.0004 70.5784 0.0000 51.4809 -8.3493 -4.6215 -61.2332 32.8623 0.0000 -24.3270 -118.9671 6.1146 6.1739 -1.8088 0.0000 -0.0000 6.2908 7.8156 -25.5437 9.5082 0.0000 -0.0000 -119.8689 -13.7373 -27.5139 -0.1437 -0.0000 0.0000 7.5216 -15.7269 13.1487 3.5064 -0.0000 -0.0000
 0.3257 31.8066 -12.3776 113.0458 2.8269 -11.3748 42.9859 10.8464 11.6541 11.5137 -18.9676 1.2462 -17.4279 -22.9623 42.7762 -47.1967 -10.1452 -19.6104 -76.2325 -0.0000 64.4724 -30.4685 28.1797 51.2456 33.1476 -0.0000 26.2537 -56.4292 47.4267 -22.1884 -16.3575 -13.0818 39.0128 70.5118 0.0000 51.4389 -8.3606 -4.6184 -61.2823 32.8623 0.0000 -24.3270 -118.9306 6.1466 6.1753 -1.7997 0.0000 -0.0000 6.2890 7.7657 -25.5126 9.5178 0.0000 0.0000 -119.8042 -13.7306 -27.5074 -0.1311 -0.0000 -0.0000 7.5208 -15.7551 13.1485 3.5009 0.0000 0.0000
 0.3257 31.8065 -12.3832 112.9941 2.8139 -11.3860 43.0415 10.7900 11.6635 11.4160 -18.8956 1.2149 -17.4042 -22.8910 42.7741 -47.1930 -10.1885 -19.5599 -76.1478 -0.0000 64.4359 -30.5592 28.1598 51.3649 33.1476 -0.0000 26.2537 -56.5169 47.4919 -22.1209 -16.3065 -13.0377 39.0378 70.4445 0.0000 51.3967 -8.3298 -4.6033 -61.2709 32.8623 0.0000 -24.3270 -118.9071 6.1633 6.1856 -1.7869 -0.0000 -0.0000 6.2896 7.7346 -25.4913 9.5194 0.0000 -0.0000 -119.7582 -13.7334 -27.4928 -0.1187 0.0000 -0.0000 7.5313 -15.7785 13.1366 3.5108 -0.0000 -0.0000
 0.3267 31.8064 -12.3885 112.9433 2.8146 -11.4039 43.0976 10.7336 11.6930 11.3006 -18.8390 1.1457 -17.3763 -22.7819 42.7627 -47.2216 -10.2577 -19.5195 -76.0575 -0.0000 64.3804 -30.5609 28.0745 51.4447 33.1476 -0.0000 26.2537 -56.6128 47.5622 -22.0679 -16.2709 -13.0143 39.0866 70.3693 0.0000 51.3917 -8.3544 -4.6107 -61.3044 32.8623 0.0000 -24.3270 -118.8805 6.1774 6.1768 -1.7686 -0.0000 0.0000 6.2911 7.7231 -25.4843 9.5145 -0.0000 -0.0000 -119.7231 -13.7470 -27.4958 -0.1041 0.0000 0.0000 7.5452 -15.7783 13.1352 3.5079 -0.0000 0.0000
 0.3268 31.8064 -12.3936 112.8897 2.8069 -11.4166 43.1500 10.6883 11.6948 11.2090 -18.7935 1.1310 -17.3849 -22.7250 42.7494 -47.2027 -10.3364 -19.4923 -75.9604 -0.0000 64.3216 -30.5645 28.0102 51.5075 33.1476 -0.0000 26.2537 -56.6774 47.6026 -22.0186 -16.2418 -12.9757 39.1109 70.2898 0.0000 51.3580 -8.3584 -4.6101 -61.3196 32.8623 0.0000 -24.3270 -118.8500 6.1742 6.1865 -1.7603 0.0000 0.0000 6.3058 7.6922 -25.4834 9.4979 0.0000 0.0000 -119.6783 -13.7546 -27.4847 -0.0922 -0.0000 -0.0000 7.5514 -15.7913 13.0619 3.5236 0.0000 0.0000
 0.3261 31.8061 -12.3985 112.8337 2.7938 -11.4341 43.2086 10.6354 11.6975 11.1104 -18.7545 1.0731 -17.3757 -22.6085 42.7276 -47.2128 -10.4505 -19.4510 -75.8556 -0.0000 64.2719 -30.5494 27.9645 51.5325 33.1476 -0.0000 26.2537 -56.7661 47.6651 -21.9535 -16.2051 -12.9525 39.1457 70.1990 0.0000 51.3315 -8.3060 -4.5764 -61.3419 32.8623 0.0000 -24.3270 -118.8157 6.1579 6.1982 -1.7544 0.0000 0.0000 6.3150 7.6738 -25.4942 9.5150 -0.0000 0.0000 -119.6325 -13.7747 -27.4685 -0.0825 0.0000 -0.0000 7.5494 -15.8146 13.0342 3.5457 0.0000 -0.0000
 0.3260 31.8057 -12.4040 112.7834 2.7832 -11.4501 43.2414 10.5944 11.6902 11.0546 -18.7568 1.0537 -17.3532 -22.5612 42.7310 -47.1910 -10.5156 -19.4095 -75.7935 -0.0000 64.2069 -30.5027 27.9595 51.4852 33.1476 -0.0000 26.2537 -56.8151 47.7057 -21.8910 -16.1687 -12.9360 39.1572 70.1314 0.0000 51.3010 -8.3198 -4.5871 -61.3264 32.8623 0.0000 -24.3270 -118.7868 6.1363 6.2048 -1.7478 0.0000 -0.0000 6.3216 7.6795 -25.4765 9.5023 -0.0000 0.0000 -119.5981 -13.8014 -27.4599 -0.0731 -0.0000 0.0000 7.5625 -15.8141 13.0171 3.5217 -0.0000 0.0000
 0.3269 31.8046 -12.4088 112.7249 2.7828 -11.4619 43.2916 10.5375 11.6842 11.0114 -18.7251 1.0369 -17.3597 -22.5146 42.7460 -47.1482 -10.5724 -19.4003 -75.7163 -0.0000 64.1559 -30.5329 27.9199 51.5552 33.1476 -0.0000 26.2537 -56.8916 47.7626 -21.8029 -16.1293 -12.9256 39.1603 70.0473 0.0000 51.2633 -8.2863 -4.5594 -61.3736 32.8623 0.0000 -24.3270 -118.7480 6.1192 6.2072 -1.7348 -0.0000 0.0000 6.3402 7.6549 -25.5395 9.3899 0.0000 -0.0000 -119.5612 -13.8374 -27.4604 -0.0715 0.0000 0.0000 7.5679 -15.8017 13.0010 3.5478 -0.0000 -0.0000
 0.3271 31.8041 -12.4148 112.6821 2.7806 -11.4791 43.3034 10.5222 11.6767 10.9909 -18.7560 1.0709 -17.3293 -22.4527 42.7465 -47.1736 -10.6931 -19.4022 -75.6020 -0.0000 64.1101 -30.5192 27.8383 51.6149 33.1476 -0.0000 26.2537 -56.9132 47.7760 -21.7757 -16.1035 -12.9120 39.1782 69.9519 0.0000 51.2452 -8.2931 -4.5508 -61.4390 32.8623 0.0000 -24.3270 -118.7210 6.0858 6.2015 -1.7270 -0.0000 -0.0000 6.3288 7.6876 -25.4465 9.4702 -0.0000 -0.0000 -119.5275 -13.8363 -27.4607 -0.0550 -0.0000 0.0000 7.5784 -15.8129 12.9799 3.5269 -0.0000 0.0000
